<?xml version="1.0" standalone="no"?>
<!DOCTYPE svg PUBLIC "-//W3C//DTD SVG 20010904//EN"
 "http://www.w3.org/TR/2001/REC-SVG-20010904/DTD/svg10.dtd">
<svg version="1.0" xmlns="http://www.w3.org/2000/svg"
 width="556.000000pt" height="556.000000pt" viewBox="0 0 556.000000 556.000000"
 preserveAspectRatio="xMidYMid meet">
<metadata>
Created by potrace 1.14, written by Peter Selinger 2001-2017
</metadata>
<g transform="translate(0.000000,556.000000) scale(0.100000,-0.100000)"
fill="#000000" stroke="none">
<path d="M2270 4050 c0 -6 -8 -10 -17 -8 -10 2 -17 -3 -15 -9 1 -7 -2 -13 -8
-13 -5 0 -10 -9 -10 -20 0 -16 -7 -20 -31 -20 -16 0 -28 -4 -25 -9 8 -13 -19
-32 -37 -25 -8 3 -33 -4 -55 -15 -24 -12 -43 -17 -47 -11 -3 5 -12 7 -21 3 -8
-3 -12 -8 -9 -11 12 -12 48 -12 64 0 8 7 6 0 -6 -15 -22 -29 -31 -117 -12
-117 10 0 0 -14 -32 -48 -9 -9 -15 -27 -14 -39 1 -13 -1 -23 -4 -23 -4 0 -5
-20 -4 -45 2 -26 -2 -45 -8 -45 -5 0 -8 -4 -5 -9 7 -11 -18 -33 -27 -24 -4 3
-7 1 -7 -5 0 -7 -7 -12 -15 -12 -8 0 -15 -5 -15 -11 0 -5 -4 -8 -9 -4 -17 10
-23 -34 -7 -51 20 -19 20 -38 1 -54 -8 -7 -15 -19 -15 -26 0 -8 -11 -16 -25
-20 -23 -6 -36 -34 -16 -34 14 0 8 -69 -7 -75 -7 -3 -10 -10 -6 -17 5 -8 0 -9
-14 -6 -12 4 -24 2 -27 -2 -8 -13 6 -40 21 -40 8 0 14 -4 14 -10 0 -5 -5 -10
-11 -10 -5 0 -9 -10 -7 -22 2 -18 -1 -22 -15 -20 -16 3 -18 -3 -14 -37 4 -37
1 -42 -24 -53 -19 -8 -27 -19 -26 -33 1 -11 -3 -19 -10 -18 -16 4 -17 -14 -2
-19 6 -2 -3 -19 -20 -37 -17 -18 -31 -44 -31 -57 0 -15 -6 -24 -16 -24 -9 0
-12 -5 -8 -12 4 -7 3 -8 -5 -4 -6 4 -19 2 -27 -5 -9 -7 -23 -14 -32 -15 -9 -2
-31 -19 -49 -38 -29 -30 -33 -42 -33 -86 0 -43 3 -53 20 -57 11 -3 20 -11 20
-19 0 -8 -6 -11 -16 -7 -18 7 -36 -17 -41 -52 -2 -11 -6 -27 -10 -35 -3 -8 -5
-21 -4 -29 1 -7 -2 -10 -8 -6 -6 3 -11 -1 -11 -9 0 -20 -42 -65 -66 -69 -35
-7 -51 -18 -74 -49 -12 -17 -17 -27 -10 -23 8 5 5 -3 -6 -17 -10 -14 -22 -24
-27 -21 -4 2 -7 1 -6 -4 1 -4 -3 -21 -9 -36 -7 -16 -12 -32 -12 -36 0 -5 -6
-14 -14 -20 -11 -9 -15 -9 -18 1 -3 7 -5 -4 -6 -25 -1 -20 3 -37 8 -37 6 0 10
4 10 8 0 5 6 9 14 9 8 0 12 -6 9 -14 -3 -7 -13 -13 -23 -13 -31 0 -35 -22 -8
-44 21 -17 24 -25 17 -43 -4 -13 -15 -23 -23 -23 -26 0 -29 -20 -5 -41 12 -10
35 -19 51 -19 18 0 28 -5 28 -15 0 -8 5 -15 10 -15 6 0 5 -9 -2 -22 -17 -29
-35 -48 -45 -48 -14 0 -59 -53 -59 -68 1 -7 8 -17 16 -22 8 -5 11 -10 7 -10
-4 0 4 -11 18 -25 29 -30 31 -41 10 -49 -18 -6 -16 -22 5 -48 8 -10 15 -26 15
-36 0 -9 5 -16 12 -15 7 2 10 -6 8 -19 -3 -11 -2 -18 1 -15 8 8 64 -13 64 -25
0 -5 5 -6 10 -3 6 3 10 1 10 -4 0 -6 7 -11 15 -11 8 0 15 -4 15 -9 0 -5 16 -9
35 -9 19 0 35 4 35 8 0 7 55 21 95 25 6 0 20 4 33 9 19 6 21 10 11 22 -9 11
-8 14 5 14 10 0 15 4 12 9 -3 5 1 12 10 15 13 5 15 1 9 -21 -5 -23 -4 -26 6
-15 7 6 22 12 34 12 14 0 16 3 7 8 -8 6 0 15 28 31 26 14 40 29 40 42 0 14 -4
18 -12 13 -10 -6 -10 -5 -1 8 7 8 10 17 7 21 -3 3 3 3 15 0 12 -3 21 -1 21 6
0 6 -16 11 -35 11 -39 0 -43 6 -17 27 9 8 11 12 5 8 -8 -4 -13 0 -13 9 0 9 -6
16 -12 16 -9 0 -8 4 2 10 13 9 13 10 0 10 -13 0 -13 1 0 10 13 8 13 10 1 10
-11 0 -10 4 4 13 13 10 16 21 11 40 -7 28 2 60 14 52 4 -3 11 6 14 20 4 14 11
25 16 25 6 0 10 7 10 15 0 8 6 15 13 15 8 0 7 3 -3 9 -18 12 -17 81 2 96 26
20 37 50 25 70 -8 15 -5 22 14 37 12 11 24 26 25 35 1 8 0 12 -3 9 -3 -3 -14
-1 -25 5 -20 11 -23 64 -3 64 18 0 36 17 32 28 -2 7 7 22 20 34 12 12 23 29
23 38 0 8 4 15 10 15 5 0 12 11 16 25 4 14 9 24 12 21 6 -6 42 38 42 52 0 6 3
12 8 14 11 5 52 66 52 78 0 5 4 10 9 10 7 0 24 55 19 63 -1 1 17 21 40 45 23
24 42 51 42 62 0 11 17 37 39 58 33 32 37 41 26 55 -8 11 -15 13 -22 6 -7 -7
-10 11 -11 56 -1 43 2 64 9 59 7 -4 10 10 8 41 -2 35 1 50 14 60 9 6 14 14 11
17 -3 3 7 8 21 12 14 4 25 11 25 16 0 6 5 10 10 10 6 0 10 -9 10 -19 0 -11 5
-23 11 -26 6 -4 8 -14 5 -22 -3 -8 -2 -11 3 -8 5 3 17 -5 25 -17 9 -12 16 -17
16 -10 0 7 3 11 8 9 9 -6 33 19 25 27 -4 3 -1 6 5 6 23 0 12 39 -22 74 -18 20
-31 38 -28 41 3 3 0 5 -6 5 -8 0 -11 12 -10 31 3 34 18 52 18 20 0 -11 6 -24
13 -28 6 -4 21 -25 31 -45 11 -21 25 -38 33 -38 10 0 12 -10 7 -40 -5 -29 -3
-40 6 -40 8 0 10 -3 7 -7 -4 -3 -2 -12 4 -19 7 -8 7 -14 -1 -19 -5 -3 -10 -1
-10 4 0 6 -15 11 -32 11 -25 0 -29 -3 -18 -10 10 -6 11 -10 3 -10 -14 0 -13
-18 2 -37 8 -9 13 -8 23 5 6 8 12 12 12 8 0 -5 6 -3 14 3 11 9 10 0 -4 -37
-18 -48 -18 -49 1 -78 10 -16 19 -43 19 -59 0 -17 11 -47 25 -66 13 -20 22
-39 20 -41 -5 -5 13 -8 45 -8 40 0 47 4 45 24 -4 31 -4 31 -25 56 -24 27 -24
34 -7 48 10 9 17 6 29 -8 9 -10 13 -21 10 -25 -4 -3 1 -3 11 1 10 3 17 1 17
-5 0 -6 7 -11 16 -11 8 0 12 -5 8 -11 -3 -6 -9 -26 -11 -45 -4 -27 -1 -34 12
-34 9 0 13 -4 10 -10 -3 -5 -1 -10 5 -10 6 0 14 -8 17 -17 4 -10 13 -24 20
-31 7 -7 13 -17 13 -21 0 -9 -66 -8 -76 2 -4 4 -15 7 -25 7 -13 0 -17 -6 -13
-22 3 -13 6 -28 6 -35 1 -7 7 -14 15 -17 7 -3 13 -12 13 -21 0 -8 3 -15 8 -15
13 0 29 -46 27 -78 -2 -28 1 -31 22 -30 32 3 47 31 32 59 -19 37 -22 79 -5 79
8 0 13 -6 11 -13 -3 -7 8 -18 25 -25 17 -8 28 -18 25 -22 -3 -5 6 -17 20 -26
14 -9 25 -23 25 -30 0 -21 -21 -17 -27 6 -3 11 -9 20 -13 20 -10 0 -40 -28
-41 -38 -5 -47 -3 -59 10 -57 8 1 17 7 19 13 5 15 52 -7 52 -25 0 -7 5 -13 10
-13 6 0 10 -9 10 -20 0 -11 6 -20 14 -20 16 0 30 -43 16 -48 -11 -4 15 -33 27
-31 20 3 27 -2 13 -11 -12 -8 -13 -11 -1 -19 10 -6 10 -10 1 -16 -8 -5 -6 -11
6 -20 10 -7 15 -19 11 -29 -4 -9 -3 -16 1 -16 4 0 7 -19 6 -42 -1 -24 2 -45 5
-48 13 -11 44 -81 38 -86 -3 -4 0 -22 8 -40 8 -19 11 -34 7 -35 -4 0 4 -5 17
-10 15 -6 21 -14 17 -25 -3 -8 -1 -25 5 -36 8 -15 8 -19 0 -14 -18 12 -12 -14
11 -47 12 -17 16 -27 7 -22 -9 5 -8 1 4 -12 9 -11 17 -25 17 -32 0 -6 7 -14
15 -17 8 -4 15 -17 15 -30 0 -13 5 -24 10 -24 6 0 10 -11 10 -25 0 -17 5 -25
18 -25 9 0 22 -8 29 -19 8 -13 21 -18 41 -15 18 2 35 -3 42 -11 15 -18 56 -19
75 -2 8 6 22 18 31 26 13 11 13 15 3 22 -10 6 -10 13 1 36 17 36 20 53 9 53
-14 0 13 49 29 52 18 4 21 83 4 100 -6 6 -8 17 -5 26 4 10 2 13 -5 8 -6 -3
-13 3 -17 14 -4 11 -10 18 -14 16 -4 -3 -13 0 -21 5 -12 7 -11 10 8 15 19 5
20 9 10 22 -11 13 -11 15 2 8 13 -7 13 -6 0 6 -8 7 -22 22 -30 32 -13 18 -13
19 0 11 12 -6 13 -5 3 6 -7 7 -13 17 -13 22 0 4 6 5 13 1 6 -4 -1 5 -16 19
-15 15 -30 27 -33 27 -18 0 -30 28 -23 53 9 33 -5 78 -23 75 -7 -2 -12 2 -11
9 2 7 -8 24 -22 37 -24 24 -36 74 -15 61 6 -3 10 -2 10 4 0 6 7 8 15 4 9 -3
14 -8 11 -10 -5 -6 19 -33 28 -33 3 0 6 9 6 20 0 13 -9 22 -25 26 -16 4 -25
14 -26 28 -1 11 -3 32 -5 46 -3 14 -5 31 -6 38 -1 6 -8 12 -15 12 -8 0 -12 4
-9 8 3 5 -10 24 -29 42 -19 18 -32 37 -29 42 3 5 1 15 -5 22 -6 7 -12 25 -13
39 -1 14 -5 24 -8 22 -3 -1 -11 3 -18 11 -7 8 -9 14 -5 14 4 0 -3 10 -17 23
-24 21 -32 37 -33 65 0 6 -6 12 -14 12 -7 0 -13 7 -13 15 0 8 4 15 9 15 12 0
11 52 -1 68 -7 8 -7 12 2 12 8 0 10 3 6 8 -4 4 -13 7 -19 7 -6 0 -12 14 -12
30 0 17 -4 36 -9 44 -6 10 -6 12 2 7 8 -5 10 -2 6 8 -3 9 -10 16 -15 16 -5 0
-9 6 -9 13 0 8 -9 22 -20 32 -12 10 -18 25 -16 32 3 7 -5 19 -17 28 -19 13
-20 18 -9 35 10 17 10 23 -3 36 -8 9 -15 22 -15 30 0 8 -7 14 -16 14 -8 0 -12
5 -9 10 3 6 1 10 -5 10 -7 0 -10 6 -7 14 3 8 1 17 -6 19 -9 3 -8 8 2 21 13 15
12 18 -8 23 -14 3 -21 12 -18 22 6 29 -38 101 -62 101 -16 0 -14 11 6 32 9 11
11 18 5 18 -7 0 -12 7 -12 15 0 8 -7 15 -16 15 -9 0 -14 6 -11 13 3 8 -3 20
-13 27 -18 13 -18 36 0 25 10 -6 5 28 -6 47 -4 7 -3 8 4 4 18 -11 14 10 -12
62 -13 26 -22 57 -21 70 1 12 -3 22 -9 22 -6 0 -4 5 4 10 12 8 13 11 1 19 -7
5 -9 11 -4 14 18 11 2 107 -18 107 -5 0 -9 7 -9 15 0 8 -7 15 -15 15 -8 0 -15
7 -15 15 0 8 -4 15 -10 15 -5 0 -21 10 -35 22 -14 12 -35 23 -47 25 -28 4 -36
12 -21 21 8 5 7 11 -3 19 -8 8 -15 9 -19 3 -3 -6 -1 -10 5 -10 6 0 8 -4 5 -10
-3 -5 -13 -10 -21 -10 -8 0 -12 5 -9 10 3 6 -1 10 -9 10 -9 0 -16 5 -16 10 0
7 -7 7 -21 -1 -17 -9 -23 -8 -30 2 -5 8 -9 10 -9 5 0 -6 -5 -5 -12 2 -15 15
-68 16 -68 2z"/>
<path d="M365 3149 c3 -3 -8 -7 -23 -7 -45 -2 -75 -11 -84 -24 -4 -7 -8 -10
-8 -6 0 10 -60 -12 -60 -23 0 -5 -6 -9 -13 -9 -16 0 -107 -91 -107 -108 0 -7
-4 -12 -10 -12 -5 0 -9 -3 -8 -7 1 -5 -5 -21 -12 -38 -7 -16 -14 -32 -15 -35
-1 -3 -5 -14 -10 -24 -14 -33 -9 -266 6 -266 4 0 10 -15 13 -34 4 -19 13 -39
21 -46 8 -7 15 -16 15 -21 0 -14 33 -52 73 -84 7 -5 23 -19 37 -30 14 -12 20
-14 15 -5 -4 8 3 5 17 -8 13 -12 28 -19 31 -15 4 3 7 1 7 -6 0 -7 6 -11 12 -8
7 2 22 0 32 -6 11 -5 37 -11 58 -12 21 -1 41 -5 45 -9 3 -3 12 -1 20 5 10 9
13 8 13 0 0 -7 5 -9 12 -5 7 4 24 8 38 9 46 3 90 16 90 28 0 7 4 6 10 -3 6
-10 10 -11 10 -2 0 6 6 12 14 12 16 0 135 91 136 103 0 5 10 23 22 40 12 17
23 38 25 46 1 8 6 17 12 20 6 4 6 12 1 21 -7 12 -34 15 -115 16 -59 1 -104 -1
-101 -3 3 -3 -13 -23 -35 -44 -37 -34 -51 -41 -75 -38 -4 0 -11 -5 -15 -13 -7
-11 -11 -10 -19 2 -6 10 -10 11 -10 3 0 -8 -13 -13 -30 -13 -16 0 -30 4 -30 9
0 5 -8 8 -17 6 -10 -1 -26 4 -35 13 -10 8 -18 12 -18 9 0 -10 -36 28 -56 59
-21 31 -24 42 -31 102 -3 23 -10 42 -17 42 -8 0 -8 2 1 8 7 4 13 27 14 50 2
23 7 42 11 42 4 0 8 7 8 15 0 8 9 24 20 35 11 11 21 23 22 28 2 9 31 38 35 34
2 -1 16 4 31 11 30 15 122 20 122 6 0 -5 7 -6 15 -3 8 4 15 1 15 -6 0 -6 6
-10 13 -7 12 4 77 -57 77 -74 0 -5 49 -9 109 -9 101 0 131 6 114 24 -4 4 -8
14 -9 24 -2 9 -8 18 -13 20 -6 2 -11 11 -11 20 0 10 -16 37 -35 61 -19 24 -35
41 -35 37 0 -4 -6 -1 -14 6 -8 7 -11 18 -8 23 3 6 2 7 -3 3 -4 -4 -20 1 -35
12 -16 11 -35 20 -43 20 -9 0 -17 4 -19 10 -1 5 -21 12 -43 16 -22 3 -46 11
-52 16 -7 6 -13 6 -13 1 0 -5 -9 -9 -20 -10 -11 -1 -18 2 -16 6 3 4 -1 8 -9 8
-8 0 -15 -4 -15 -9 0 -4 -5 -8 -11 -8 -5 0 -8 4 -5 8 2 4 -4 8 -14 8 -10 0
-17 -3 -15 -7z"/>
<path d="M5160 3150 c-8 -5 -25 -10 -37 -10 -13 0 -23 -4 -23 -9 0 -6 -9 -8
-20 -6 -11 2 -18 0 -15 -6 4 -5 -1 -9 -9 -9 -21 0 -109 -87 -101 -100 3 -5 1
-10 -5 -10 -6 0 -9 -4 -5 -9 3 -5 1 -12 -5 -16 -5 -3 -10 -11 -10 -16 0 -6 6
-7 13 -3 9 6 9 4 1 -7 -5 -8 -11 -29 -13 -48 -2 -26 0 -31 11 -25 10 6 11 5 1
-7 -25 -32 49 -131 122 -163 22 -10 48 -22 57 -27 9 -5 32 -11 50 -14 18 -3
38 -11 45 -17 7 -6 13 -7 13 -2 0 4 5 3 12 -4 7 -7 20 -12 30 -12 10 0 18 -4
18 -9 0 -5 9 -11 20 -14 11 -3 20 -12 20 -21 0 -9 5 -16 12 -16 9 0 9 -3 1
-11 -6 -6 -9 -18 -6 -25 3 -7 -3 -24 -14 -36 -21 -27 -80 -36 -123 -18 -24 10
-52 48 -54 74 -1 12 -76 15 -76 3 0 -5 -6 -5 -13 2 -10 8 -17 7 -25 -1 -7 -7
-12 -8 -12 -2 0 6 -7 11 -15 11 -8 0 -15 -5 -15 -11 0 -6 -4 -6 -11 1 -6 6
-19 8 -30 6 -19 -5 -19 -11 -5 -78 1 -5 8 -21 16 -35 8 -14 13 -29 12 -33 -1
-5 2 -6 7 -3 5 3 11 0 14 -7 2 -6 26 -27 53 -46 26 -19 44 -29 40 -22 -7 10
-3 10 15 0 51 -26 61 -30 66 -26 2 3 18 1 34 -3 17 -5 29 -5 29 0 0 6 10 6 24
0 13 -5 26 -7 27 -5 2 2 20 6 40 9 20 3 49 11 65 17 16 7 33 13 37 13 4 1 12
8 17 16 5 8 10 11 10 6 0 -4 18 10 40 33 23 23 38 46 35 51 -4 6 -2 10 4 10
22 0 29 120 10 189 -6 22 -71 91 -81 85 -4 -3 -8 0 -8 5 0 6 -7 11 -16 11 -9
0 -12 5 -8 12 4 6 3 8 -3 5 -6 -4 -18 0 -29 7 -10 8 -24 12 -31 9 -7 -3 -13 1
-13 8 0 11 -3 11 -10 -1 -7 -11 -10 -11 -10 -2 0 7 -4 11 -9 8 -5 -3 -11 1
-14 9 -4 8 -15 12 -26 10 -11 -2 -23 0 -26 6 -4 5 -15 9 -26 9 -10 0 -19 4
-19 9 0 5 -10 11 -23 15 -31 7 -46 43 -36 82 9 31 49 61 67 50 6 -3 13 0 15 6
4 10 6 10 6 1 1 -7 7 -10 15 -7 8 3 23 -3 34 -14 11 -11 24 -17 28 -14 4 4 5
3 2 -3 -3 -5 -2 -20 2 -31 7 -18 15 -21 49 -19 27 2 39 -1 34 -8 -4 -6 -1 -7
8 -1 20 12 38 14 45 3 3 -5 11 -6 17 -2 7 4 21 8 32 9 39 2 45 4 45 15 0 5 -4
8 -8 5 -4 -2 -7 11 -7 29 1 19 -2 32 -7 29 -4 -3 -8 7 -8 21 0 15 -4 24 -10
20 -5 -3 -10 -1 -10 5 0 18 -66 80 -84 80 -9 0 -16 4 -16 10 0 10 -66 26 -89
21 -7 -1 -11 1 -8 6 7 11 -64 10 -82 -1 -10 -6 -12 -5 -7 2 4 7 1 12 -8 12 -9
0 -16 -4 -16 -10 0 -5 -5 -10 -11 -10 -5 0 -7 5 -4 10 8 12 4 12 -15 0z"/>
<path d="M3804 3123 c2 -10 -2 -24 -8 -32 -8 -11 -8 -13 2 -7 13 8 13 -19 -1
-41 -5 -7 -4 -13 1 -13 12 0 10 -43 -3 -52 -6 -5 -5 -8 4 -8 10 0 11 -3 2 -14
-8 -10 -9 -16 -2 -21 12 -7 10 -32 -2 -52 -5 -7 -4 -13 1 -13 11 0 10 -40 -2
-59 -6 -9 -5 -12 1 -8 12 8 11 -52 -1 -72 -4 -6 -3 -18 3 -25 12 -14 11 -43
-2 -63 -5 -7 -4 -13 1 -13 11 0 10 -40 -2 -59 -6 -9 -5 -12 2 -7 14 8 11 -56
-3 -66 -6 -5 -5 -8 4 -8 10 0 11 -3 2 -14 -8 -10 -9 -16 -2 -21 12 -7 10 -32
-2 -52 -5 -7 -4 -13 1 -13 11 0 10 -40 -2 -59 -6 -9 -5 -12 2 -7 6 3 13 3 15
-1 4 -6 118 -9 185 -4 14 1 12 22 -3 33 -6 5 -5 8 4 8 10 0 11 3 2 14 -9 11
-9 16 0 21 8 6 7 10 -2 16 -12 7 -12 9 0 9 10 0 11 3 2 14 -9 11 -9 16 0 21 8
6 7 10 -2 16 -11 7 -11 9 -1 9 8 0 10 5 5 13 -10 16 -10 39 0 54 4 6 3 14 -3
18 -8 5 -8 11 1 21 9 11 9 14 0 14 -8 0 -7 5 3 15 8 8 25 15 37 15 12 0 20 -3
16 -6 -3 -4 5 -23 18 -43 14 -19 25 -41 25 -48 0 -6 11 -24 25 -39 14 -15 25
-35 25 -45 0 -11 5 -19 11 -19 5 0 7 -4 4 -10 -3 -5 -2 -10 2 -10 5 0 18 -21
31 -47 l22 -48 103 1 c129 2 127 2 127 15 0 5 -4 7 -10 4 -5 -3 -10 1 -10 9 0
9 -4 16 -10 16 -5 0 -7 7 -4 15 4 8 2 15 -3 15 -4 0 -17 17 -28 38 -11 20 -22
39 -25 42 -3 3 -12 14 -20 24 -13 18 -13 19 0 11 15 -8 -15 33 -33 46 -5 3 -8
8 -8 10 2 12 -13 49 -19 49 -16 0 -18 29 -2 42 13 11 14 11 7 -1 -5 -8 7 -3
27 12 19 15 41 27 48 27 7 0 10 3 7 7 -4 3 2 13 13 20 25 18 58 82 55 106 -2
9 1 17 7 17 6 0 7 5 2 13 -12 15 -11 38 1 56 5 10 4 16 -3 19 -7 2 -12 13 -12
23 0 11 -8 34 -17 52 -9 18 -16 35 -15 40 1 4 -3 7 -9 7 -7 0 -19 8 -28 18 -9
9 -36 28 -61 42 -43 23 -53 24 -272 28 -215 3 -226 3 -224 -15z m386 -164 c0
-6 5 -7 10 -4 6 3 10 1 10 -5 0 -6 7 -18 15 -26 8 -8 12 -21 9 -29 -4 -8 -1
-15 6 -15 6 0 8 -5 3 -12 -8 -13 -13 -33 -15 -55 -1 -7 -5 -10 -9 -8 -4 3 -10
-2 -13 -11 -3 -8 -10 -12 -16 -9 -5 3 -10 2 -10 -3 0 -5 -13 -9 -28 -10 -15 0
-32 -1 -37 -2 -32 -7 -115 1 -110 10 3 6 0 10 -7 10 -10 0 -10 2 0 9 8 4 14
12 14 16 0 4 -6 12 -14 16 -11 7 -11 9 1 9 10 0 11 3 2 14 -9 11 -9 16 0 21 8
6 7 10 -2 16 -12 7 -12 9 0 9 11 0 11 3 1 15 -10 12 -10 15 0 15 10 0 10 3 1
14 -10 11 -9 16 3 23 20 11 186 4 186 -8z"/>
<path d="M1317 2514 c-3 -3 -13 -7 -24 -8 -13 -2 -18 -12 -19 -35 -1 -17 1
-29 4 -27 2 3 11 -2 20 -10 18 -18 32 -7 35 27 0 13 5 27 9 30 5 3 3 11 -5 17
-8 7 -16 9 -20 6z"/>
<path d="M2795 2286 c-17 -12 -16 -14 13 -18 26 -4 32 -1 32 14 0 21 -19 23
-45 4z"/>
<path d="M2810 2198 c0 -8 7 -15 15 -15 18 0 15 19 -3 25 -7 2 -12 -3 -12 -10z"/>
<path d="M1740 1870 c0 -13 5 -18 15 -14 8 4 15 10 15 14 0 4 -7 10 -15 14
-10 4 -15 -1 -15 -14z"/>
<path d="M1774 1832 c3 -5 1 -12 -6 -14 -8 -3 -9 -6 -1 -11 6 -4 13 0 17 8 3
8 0 17 -6 21 -6 4 -8 3 -4 -4z"/>
<path d="M1806 1774 c-8 -20 0 -32 14 -18 5 5 5 15 1 22 -6 11 -10 10 -15 -4z"/>
<path d="M1772 1729 c2 -6 8 -10 13 -10 5 0 11 4 13 10 2 6 -4 11 -13 11 -9 0
-15 -5 -13 -11z"/>
<path d="M1643 1545 c-12 -9 -13 -14 -4 -19 6 -4 19 -2 28 6 14 11 16 11 8 -1
-5 -10 -4 -12 3 -7 17 10 15 33 -3 33 -9 0 -23 -6 -32 -12z"/>
</g>
</svg>
